<svg width="100" height="100" xmlns="http://www.w3.org/2000/svg">
  <defs>
    <pattern id="smallGrid" width="10" height="10" patternUnits="userSpaceOnUse">
      <path d="M 10 0 L 0 0 0 10" fill="none" stroke="rgba(255,255,255,0.05)" stroke-width="0.5"/>
    </pattern>
    <pattern id="grid" width="100" height="100" patternUnits="userSpaceOnUse">
      <rect width="100" height="100" fill="url(#smallGrid)"/>
      <path d="M 100 0 L 0 0 0 100" fill="none" stroke="rgba(255,255,255,0.1)" stroke-width="1"/>
    </pattern>
  </defs>
  
  <!-- Create a blue rectangle with the grid pattern -->
  <rect width="100" height="100" fill="#1a365d"/>
  <rect width="100" height="100" fill="url(#grid)"/>
  
  <!-- Add small diamond shapes for a sports-themed pattern -->
  <path d="M 25 25 L 35 35 L 25 45 L 15 35 Z" fill="rgba(255,255,255,0.05)"/>
  <path d="M 75 25 L 85 35 L 75 45 L 65 35 Z" fill="rgba(255,255,255,0.05)"/>
  <path d="M 25 75 L 35 85 L 25 95 L 15 85 Z" fill="rgba(255,255,255,0.05)"/>
  <path d="M 75 75 L 85 85 L 75 95 L 65 85 Z" fill="rgba(255,255,255,0.05)"/>
  <path d="M 50 50 L 60 60 L 50 70 L 40 60 Z" fill="rgba(255,255,255,0.1)"/>
  
  <!-- Add a subtle dot pattern -->
  <circle cx="10" cy="10" r="1" fill="rgba(255,255,255,0.2)"/>
  <circle cx="30" cy="10" r="1" fill="rgba(255,255,255,0.2)"/>
  <circle cx="50" cy="10" r="1" fill="rgba(255,255,255,0.2)"/>
  <circle cx="70" cy="10" r="1" fill="rgba(255,255,255,0.2)"/>
  <circle cx="90" cy="10" r="1" fill="rgba(255,255,255,0.2)"/>
  
  <circle cx="10" cy="30" r="1" fill="rgba(255,255,255,0.2)"/>
  <circle cx="30" cy="30" r="1" fill="rgba(255,255,255,0.2)"/>
  <circle cx="50" cy="30" r="1" fill="rgba(255,255,255,0.2)"/>
  <circle cx="70" cy="30" r="1" fill="rgba(255,255,255,0.2)"/>
  <circle cx="90" cy="30" r="1" fill="rgba(255,255,255,0.2)"/>
  
  <circle cx="10" cy="50" r="1" fill="rgba(255,255,255,0.2)"/>
  <circle cx="30" cy="50" r="1" fill="rgba(255,255,255,0.2)"/>
  <circle cx="50" cy="50" r="1" fill="rgba(255,255,255,0.2)"/>
  <circle cx="70" cy="50" r="1" fill="rgba(255,255,255,0.2)"/>
  <circle cx="90" cy="50" r="1" fill="rgba(255,255,255,0.2)"/>
  
  <circle cx="10" cy="70" r="1" fill="rgba(255,255,255,0.2)"/>
  <circle cx="30" cy="70" r="1" fill="rgba(255,255,255,0.2)"/>
  <circle cx="50" cy="70" r="1" fill="rgba(255,255,255,0.2)"/>
  <circle cx="70" cy="70" r="1" fill="rgba(255,255,255,0.2)"/>
  <circle cx="90" cy="70" r="1" fill="rgba(255,255,255,0.2)"/>
  
  <circle cx="10" cy="90" r="1" fill="rgba(255,255,255,0.2)"/>
  <circle cx="30" cy="90" r="1" fill="rgba(255,255,255,0.2)"/>
  <circle cx="50" cy="90" r="1" fill="rgba(255,255,255,0.2)"/>
  <circle cx="70" cy="90" r="1" fill="rgba(255,255,255,0.2)"/>
  <circle cx="90" cy="90" r="1" fill="rgba(255,255,255,0.2)"/>
</svg> 